<svg xmlns="http://www.w3.org/2000/svg" width="1482" height="560" viewBox="0 0 1482 560" role="img" aria-labelledby="t d">
  <title id="t">VolPYT — Plan Your Team, Plan Your Time</title>
  <desc id="d">Banner profesional con grid, paleta definida y logo externo.</desc>
  <defs>
    <linearGradient id="bg" x1="0" y1="0" x2="1" y2="1">
      <stop offset="0%" stop-color="#E2EFF1"/>
      <stop offset="100%" stop-color="#FBFBF8"/>
    </linearGradient>
    <filter id="elev" x="-20%" y="-20%" width="140%" height="140%">
      <feDropShadow dx="0" dy="8" stdDeviation="14" flood-opacity="0.18"/>
    </filter>
    <clipPath id="round">
      <rect x="0" y="0" width="1482" height="560" rx="28" ry="28"/>
    </clipPath>
  </defs>
  <style>
    text, tspan { font-family: Inter, "Segoe UI", Roboto, Arial, sans-serif; }
  </style>
  <g clip-path="url(#round)">
    <rect width="1482" height="560" fill="url(#bg)"/>
    <!-- subtle overlay arcs for depth -->
    <path d="M0 448.0 C 288.0 347.2, 547.2 588.0, 979.2 504.0 L 1440 560 L 0 560 Z" fill="#FBFBF8" opacity="0.08"/>
    <path d="M0 123.2 C 259.2 11.2, 662.4 156.8, 1008.0 56.0 L 1440 0 L 0 0 Z" fill="#000" opacity="0.06"/>
    
    <!-- content card -->
    <g filter="url(#elev)">
      <rect x="45" y="45" width="1392" height="470" rx="22" ry="22" fill="#FFFFFF" opacity="0.96" stroke="#ECEFF1"/>
    </g>
    
    <!-- logo area -->
    <g transform="translate(77, 77)">
      <rect x="-20" y="-20" width="446" height="446" rx="16" ry="16" fill="#FBFBF8" stroke="#ECEFF1"/>
      <svg xmlns="http://www.w3.org/2000/svg" width="400" height="400" viewBox="0 0 8160 8220" preserveAspectRatio="xMidYMid meet">
        <g id="Fondo azul gasolina" fill="#0F404B" style="transform: none;">
          <circle cx="4080" cy="4110" r="4080"/>
        </g>
        <g transform="translate(-150,150)">
          <g id="Zona naranja" fill="#F28C28" style="transform: none;">
            <g style="transform: none;">
                <path id="Cabeza zorro" d="M3405 7625 c-5 -2 -77 -22 -160 -45 -140 -39 -297 -91 -337 -111 -10 -5 -23 -9 -28 -9 -6 0 -37 -12 -68 -26 -31 -14 -66 -29 -77 -34 -11 -4 -81 -38 -155 -75 -362 -180 -649 -383 -916 -650 -230 -230 -409 -473 -551 -751 -117 -229 -179 -391 -238 -624 -68 -269 -79 -363 -79 -675 0 -299 6 -363 60 -603 114 -511 378 -991 740 -1342 60 -59 131 -124 157 -146 l49 -41 -17 -102 c-25 -145 -17 -471 14 -625 43 -209 137 -446 257 -645 64 -105 293 -419 312 -426 36 -14 323 235 463 404 206 246 375 574 444 859 l17 72 42 0 c22 0 93 11 156 24 304 64 581 213 818 441 134 129 209 223 335 420 168 263 287 393 486 526 180 121 376 206 635 274 98 26 136 41 157 61 16 15 26 31 23 36 -3 5 -87 8 -186 7 -205 -2 -215 2 -225 78 -7 55 10 103 59 158 22 25 39 47 37 49 -6 6 -158 34 -242 46 -269 35 -777 -21 -1312 -146 -540 -127 -667 -145 -842 -125 -633 73 -1146 554 -1273 1191 -33 169 -44 331 -32 483 36 436 202 853 490 1236 260 345 719 720 957 783 67 17 85 26 85 40 0 17 -26 23 -55 13z m938 -4327 c15 -12 10 -21 -44 -93 -74 -99 -151 -178 -193 -198 -133 -65 -228 -76 -394 -46 -34 6 -65 15 -68 20 -3 5 -15 9 -28 9 -12 0 -32 10 -44 23 l-21 22 56 30 c30 16 79 50 107 75 146 133 244 166 497 169 78 1 120 -3 132 -11z m-1916 -1124 c109 -39 171 -58 309 -94 l42 -10 -23 -108 c-46 -218 -142 -455 -256 -632 l-53 -83 -23 29 c-36 46 -119 221 -147 312 -59 188 -70 389 -31 557 20 83 22 88 44 80 9 -3 71 -26 138 -51z"></path>
                <path id="Cola en el cuello" d="M3944 7702 c-6 -4 -42 -54 -81 -112 -308 -464 -588 -1047 -617 -1290 -5 -44 -4 -43 21 23 27 70 40 85 23 26 -16 -55 -31 -315 -24 -424 19 -314 80 -532 199 -710 53 -79 120 -153 130 -143 3 2 0 42 -6 89 -15 109 -6 400 16 499 57 264 179 523 385 815 98 141 95 134 122 256 20 94 22 130 22 384 0 199 -5 321 -17 422 -9 78 -17 149 -17 158 0 12 -14 15 -72 15 -40 0 -78 -4 -84 -8z"></path>
                <path id="Columna 1" d="M4627 7693 c-4 -3 -7 -558 -7 -1233 0 -1176 1 -1228 18 -1243 17 -15 56 -17 360 -17 l341 0 20 26 21 27 -2 1150 -3 1150 -30 18 c-16 10 -42 18 -56 18 -14 1 -29 4 -33 8 -15 16 -290 70 -446 88 -139 17 -173 18 -183 8z"></path>
                <path id="Columna 2" d="M5670 6030 l-1 -1420 25 -25 25 -25 335 0 335 0 20 26 21 27 -2 1201 -3 1201 -107 75 c-59 41 -118 85 -131 98 -13 13 -35 26 -48 30 -13 4 -73 35 -134 70 -60 35 -117 67 -125 72 -8 4 -30 14 -49 21 -18 7 -47 22 -65 34 -18 12 -46 25 -63 28 l-31 6 -2 -1419z"></path>
                <path id="Columna 3" d="M6710 4872 c0 -1817 1 -1890 18 -1905 17 -15 57 -17 365 -17 l346 0 15 22 c14 20 16 174 16 1444 0 1125 -3 1427 -13 1445 -41 78 -218 325 -356 499 -115 143 -358 400 -380 400 -8 0 -11 -498 -11 -1888z"></path>
                <path id="Flecha" d="M5264 3179 c-32 -31 -54 -60 -54 -73 0 -12 21 -46 47 -76 101 -118 329 -378 377 -430 28 -30 83 -91 121 -135 39 -44 93 -104 120 -135 104 -116 230 -262 233 -271 2 -5 -30 -46 -70 -92 -129 -144 -190 -219 -181 -228 12 -11 135 -35 308 -58 83 -12 213 -30 290 -41 77 -10 192 -26 255 -35 63 -9 127 -18 141 -20 51 -8 49 13 -35 400 -88 402 -144 625 -159 625 -5 0 -60 -48 -123 -107 -64 -60 -119 -109 -123 -111 -4 -1 -41 28 -83 65 -303 273 -763 647 -915 746 -62 39 -85 36 -149 -24z"></path>
            </g>
          </g>
          <g id="Zonas blancas" fill="#FBFBF8" style="transform: none;">
            <g style="transform: none;">
                <path id="Oreja zorro" d="M2240 2265 c-45 -120 -62 -367 -36 -527 29 -176 95 -346 192 -497 22 -34 42 -61 46 -61 4 0 36 44 72 98 124 185 222 425 272 659 33 158 33 160 -18 173 -142 37 -202 55 -316 96 -70 26 -144 55 -165 65 l-37 20 -10 -26z"></path>
                <path id="Cuello y boca zorro" d="M3915 7703 c-329 -26 -603 -92 -744 -178 -204 -123 -384 -269 -566 -456 -565 -584 -814 -1332 -675 -2029 60 -300 198 -558 410 -770 313 -311 736 -466 1150 -421 117 13 262 42 615 125 402 94 836 156 1087 156 91 0 262 -21 359 -44 l56 -13 54 50 54 50 -65 59 c-142 128 -306 230 -446 277 -156 52 -229 56 -695 36 -226 -9 -446 -14 -488 -10 -94 8 -225 38 -294 67 -143 59 -335 228 -433 379 -211 325 -229 748 -55 1254 171 493 382 919 665 1340 96 142 92 135 69 133 -10 -1 -36 -3 -58 -5z"></path>
            </g>
          </g>
        </g>
      </svg>
    </g>
    <!-- text area -->
    <g transform="translate(525,0)">
      <text y="175" font-size="112" font-weight="800" fill="#0F404B" letter-spacing="0.3">Vol<tspan fill="#F28C28">PYT</tspan></text>
      <text y="250" font-size="56" font-weight="600" fill="#1E2D2F">Plan Your Team, Plan Your Time</text>
      <text y="300" font-size="39" font-weight="400" fill="#7A8A93">Team and time management focused on metrics</text>
      <text y="350" font-size="39" font-weight="400" fill="#7A8A93">and continuous improvement.</text>
      
      <!-- CTA -->
      <g transform="translate(0,393)" font-size="37" font-weight="600" fill="#E2EFF1">
        <rect x="0" y="0" rx="12" ry="12" width="900" height="110" fill="#0F404B"/>
        <text x="20" y="47">Clever as a fox, you will transform time into results</text>
        <text x="20" y="87">like no other. Discover Vol<tspan fill="#F28C28">PYT</tspan>!</text>
      </g>
    </g>
    
    <!-- safe area guide (hidden) -->
    <g display="none">
      <rect x="57" y="57" width="1326" height="446" fill="none" stroke="#ECEFF1" stroke-dasharray="6 6"/>
    </g>
  </g>
</svg>
